<?xml version="1.0" encoding="utf-8" standalone="no"?>
<!DOCTYPE svg PUBLIC "-//W3C//DTD SVG 1.1//EN"
  "http://www.w3.org/Graphics/SVG/1.1/DTD/svg11.dtd">
<!-- Created with matplotlib (https://matplotlib.org/) -->
<svg height="288pt" version="1.1" viewBox="0 0 432 288" width="432pt" xmlns="http://www.w3.org/2000/svg" xmlns:xlink="http://www.w3.org/1999/xlink">
 <defs>
  <style type="text/css">
*{stroke-linecap:butt;stroke-linejoin:round;}
  </style>
 </defs>
 <g id="figure_1">
  <g id="patch_1">
   <path d="M 0 288 
L 432 288 
L 432 0 
L 0 0 
z
" style="fill:#ffffff;"/>
  </g>
  <g id="axes_1">
   <g id="patch_2">
    <path d="M 54 252 
L 388.8 252 
L 388.8 34.56 
L 54 34.56 
z
" style="fill:#ffffff;"/>
   </g>
   <g id="PolyCollection_1">
    <path clip-path="url(#pa26907ec1d)" d="M 69.218182 120.672597 
L 69.218182 160.05378 
L 72.323933 151.187204 
L 75.429685 143.700278 
L 78.535436 132.260718 
L 81.641187 132.760727 
L 84.746939 133.986064 
L 87.85269 132.729707 
L 90.958442 130.66447 
L 94.064193 129.85499 
L 97.169944 134.612322 
L 100.275696 129.910235 
L 103.381447 130.121485 
L 106.487199 131.787294 
L 109.59295 133.224932 
L 112.698701 145.200636 
L 115.804453 132.163282 
L 118.910204 131.266332 
L 122.015955 133.276601 
L 125.121707 132.351252 
L 128.227458 133.98367 
L 131.33321 130.849182 
L 134.438961 131.649022 
L 137.544712 128.302624 
L 140.650464 130.813446 
L 143.756215 131.356943 
L 146.861967 128.906368 
L 149.967718 129.519164 
L 153.073469 128.75202 
L 156.179221 129.084987 
L 159.284972 130.704013 
L 162.390724 129.551397 
L 165.496475 127.590041 
L 168.602226 129.898133 
L 171.707978 131.756016 
L 174.813729 132.925741 
L 177.919481 135.971436 
L 181.025232 135.176299 
L 184.130983 132.048245 
L 187.236735 136.18858 
L 190.342486 133.086822 
L 193.448237 132.314962 
L 196.553989 137.461029 
L 199.65974 162.319181 
L 202.765492 156.154574 
L 205.871243 177.444031 
L 208.976994 184.755241 
L 212.082746 202.191795 
L 215.188497 207.198138 
L 218.294249 207.772833 
L 221.4 208.259424 
L 224.505751 212.188772 
L 227.611503 214.640622 
L 230.717254 219.076102 
L 233.823006 215.861354 
L 236.928757 219.756359 
L 240.034508 221.435271 
L 243.14026 222.754647 
L 246.246011 222.721419 
L 249.351763 215.318686 
L 252.457514 194.093041 
L 255.563265 202.862664 
L 258.669017 170.216039 
L 261.774768 187.66346 
L 264.880519 187.128468 
L 267.986271 197.486786 
L 271.092022 208.109927 
L 274.197774 177.602626 
L 277.303525 189.237224 
L 280.409276 209.205921 
L 283.515028 201.828704 
L 286.620779 208.448075 
L 289.726531 209.549909 
L 292.832282 213.938952 
L 295.938033 216.254785 
L 299.043785 219.8256 
L 302.149536 221.770321 
L 305.255288 222.716251 
L 308.361039 223.541378 
L 311.46679 224.002694 
L 314.572542 223.599334 
L 317.678293 220.594361 
L 320.784045 221.993981 
L 323.889796 223.749243 
L 326.995547 223.186068 
L 330.101299 222.319685 
L 333.20705 223.26352 
L 336.312801 223.194544 
L 339.418553 222.53448 
L 342.524304 218.401315 
L 345.630056 208.807064 
L 348.735807 212.255475 
L 351.841558 215.178177 
L 354.94731 216.159085 
L 358.053061 212.21632 
L 361.158813 215.887911 
L 364.264564 206.257801 
L 367.370315 202.725407 
L 370.476067 195.132785 
L 373.581818 168.903199 
L 373.581818 116.945046 
L 373.581818 116.945046 
L 370.476067 120.102537 
L 367.370315 121.046123 
L 364.264564 120.884161 
L 361.158813 122.658936 
L 358.053061 121.991009 
L 354.94731 122.795426 
L 351.841558 123.052736 
L 348.735807 123.184192 
L 345.630056 122.137773 
L 342.524304 123.909924 
L 339.418553 125.398168 
L 336.312801 125.628925 
L 333.20705 125.808037 
L 330.101299 125.295351 
L 326.995547 125.45722 
L 323.889796 125.784012 
L 320.784045 125.189724 
L 317.678293 124.370569 
L 314.572542 125.564766 
L 311.46679 125.476594 
L 308.361039 124.751959 
L 305.255288 123.883303 
L 302.149536 123.090098 
L 299.043785 122.350188 
L 295.938033 121.655396 
L 292.832282 121.522525 
L 289.726531 121.098722 
L 286.620779 121.38051 
L 283.515028 120.185451 
L 280.409276 121.687851 
L 277.303525 120.489947 
L 274.197774 118.403835 
L 271.092022 121.350322 
L 267.986271 121.006947 
L 264.880519 119.985001 
L 261.774768 121.265599 
L 258.669017 118.251213 
L 255.563265 122.174784 
L 252.457514 119.773409 
L 249.351763 122.288823 
L 246.246011 124.329603 
L 243.14026 124.025956 
L 240.034508 123.178346 
L 236.928757 122.708052 
L 233.823006 121.448769 
L 230.717254 122.001016 
L 227.611503 121.296032 
L 224.505751 121.123961 
L 221.4 120.670447 
L 218.294249 120.539412 
L 215.188497 120.569231 
L 212.082746 120.838203 
L 208.976994 119.167888 
L 205.871243 118.798725 
L 202.765492 112.786565 
L 199.65974 115.26138 
L 196.553989 89.78239 
L 193.448237 64.553021 
L 190.342486 72.348075 
L 187.236735 82.115152 
L 184.130983 62.473268 
L 181.025232 73.14574 
L 177.919481 71.183906 
L 174.813729 52.717896 
L 171.707978 47.508733 
L 168.602226 44.443636 
L 165.496475 45.208289 
L 162.390724 45.22587 
L 159.284972 45.441294 
L 156.179221 44.634431 
L 153.073469 45.231032 
L 149.967718 45.756353 
L 146.861967 47.213361 
L 143.756215 49.157731 
L 140.650464 48.586603 
L 137.544712 50.262183 
L 134.438961 54.99814 
L 131.33321 58.958061 
L 128.227458 72.052655 
L 125.121707 62.259643 
L 122.015955 68.664269 
L 118.910204 63.475305 
L 115.804453 80.2839 
L 112.698701 106.468431 
L 109.59295 59.082806 
L 106.487199 52.696489 
L 103.381447 53.122685 
L 100.275696 60.955926 
L 97.169944 79.712429 
L 94.064193 50.695882 
L 90.958442 55.970023 
L 87.85269 66.358243 
L 84.746939 74.941223 
L 81.641187 67.615062 
L 78.535436 78.671737 
L 75.429685 110.332258 
L 72.323933 117.577586 
L 69.218182 120.672597 
z
" style="fill:#1f77b4;fill-opacity:0.5;"/>
   </g>
   <g id="matplotlib.axis_1">
    <g id="xtick_1">
     <g id="line2d_1">
      <defs>
       <path d="M 0 0 
L 0 3.5 
" id="meae1842f4f" style="stroke:#000000;stroke-width:0.8;"/>
      </defs>
      <g>
       <use style="stroke:#000000;stroke-width:0.8;" x="69.218182" xlink:href="#meae1842f4f" y="252"/>
      </g>
     </g>
     <g id="text_1">
      <!-- 0 -->
      <defs>
       <path d="M 31.78125 66.40625 
Q 24.171875 66.40625 20.328125 58.90625 
Q 16.5 51.421875 16.5 36.375 
Q 16.5 21.390625 20.328125 13.890625 
Q 24.171875 6.390625 31.78125 6.390625 
Q 39.453125 6.390625 43.28125 13.890625 
Q 47.125 21.390625 47.125 36.375 
Q 47.125 51.421875 43.28125 58.90625 
Q 39.453125 66.40625 31.78125 66.40625 
z
M 31.78125 74.21875 
Q 44.046875 74.21875 50.515625 64.515625 
Q 56.984375 54.828125 56.984375 36.375 
Q 56.984375 17.96875 50.515625 8.265625 
Q 44.046875 -1.421875 31.78125 -1.421875 
Q 19.53125 -1.421875 13.0625 8.265625 
Q 6.59375 17.96875 6.59375 36.375 
Q 6.59375 54.828125 13.0625 64.515625 
Q 19.53125 74.21875 31.78125 74.21875 
z
" id="DejaVuSans-48"/>
      </defs>
      <g transform="translate(66.036932 266.598437)scale(0.1 -0.1)">
       <use xlink:href="#DejaVuSans-48"/>
      </g>
     </g>
    </g>
    <g id="xtick_2">
     <g id="line2d_2">
      <g>
       <use style="stroke:#000000;stroke-width:0.8;" x="131.33321" xlink:href="#meae1842f4f" y="252"/>
      </g>
     </g>
     <g id="text_2">
      <!-- 20 -->
      <defs>
       <path d="M 19.1875 8.296875 
L 53.609375 8.296875 
L 53.609375 0 
L 7.328125 0 
L 7.328125 8.296875 
Q 12.9375 14.109375 22.625 23.890625 
Q 32.328125 33.6875 34.8125 36.53125 
Q 39.546875 41.84375 41.421875 45.53125 
Q 43.3125 49.21875 43.3125 52.78125 
Q 43.3125 58.59375 39.234375 62.25 
Q 35.15625 65.921875 28.609375 65.921875 
Q 23.96875 65.921875 18.8125 64.3125 
Q 13.671875 62.703125 7.8125 59.421875 
L 7.8125 69.390625 
Q 13.765625 71.78125 18.9375 73 
Q 24.125 74.21875 28.421875 74.21875 
Q 39.75 74.21875 46.484375 68.546875 
Q 53.21875 62.890625 53.21875 53.421875 
Q 53.21875 48.921875 51.53125 44.890625 
Q 49.859375 40.875 45.40625 35.40625 
Q 44.1875 33.984375 37.640625 27.21875 
Q 31.109375 20.453125 19.1875 8.296875 
z
" id="DejaVuSans-50"/>
      </defs>
      <g transform="translate(124.97071 266.598437)scale(0.1 -0.1)">
       <use xlink:href="#DejaVuSans-50"/>
       <use x="63.623047" xlink:href="#DejaVuSans-48"/>
      </g>
     </g>
    </g>
    <g id="xtick_3">
     <g id="line2d_3">
      <g>
       <use style="stroke:#000000;stroke-width:0.8;" x="193.448237" xlink:href="#meae1842f4f" y="252"/>
      </g>
     </g>
     <g id="text_3">
      <!-- 40 -->
      <defs>
       <path d="M 37.796875 64.3125 
L 12.890625 25.390625 
L 37.796875 25.390625 
z
M 35.203125 72.90625 
L 47.609375 72.90625 
L 47.609375 25.390625 
L 58.015625 25.390625 
L 58.015625 17.1875 
L 47.609375 17.1875 
L 47.609375 0 
L 37.796875 0 
L 37.796875 17.1875 
L 4.890625 17.1875 
L 4.890625 26.703125 
z
" id="DejaVuSans-52"/>
      </defs>
      <g transform="translate(187.085737 266.598437)scale(0.1 -0.1)">
       <use xlink:href="#DejaVuSans-52"/>
       <use x="63.623047" xlink:href="#DejaVuSans-48"/>
      </g>
     </g>
    </g>
    <g id="xtick_4">
     <g id="line2d_4">
      <g>
       <use style="stroke:#000000;stroke-width:0.8;" x="255.563265" xlink:href="#meae1842f4f" y="252"/>
      </g>
     </g>
     <g id="text_4">
      <!-- 60 -->
      <defs>
       <path d="M 33.015625 40.375 
Q 26.375 40.375 22.484375 35.828125 
Q 18.609375 31.296875 18.609375 23.390625 
Q 18.609375 15.53125 22.484375 10.953125 
Q 26.375 6.390625 33.015625 6.390625 
Q 39.65625 6.390625 43.53125 10.953125 
Q 47.40625 15.53125 47.40625 23.390625 
Q 47.40625 31.296875 43.53125 35.828125 
Q 39.65625 40.375 33.015625 40.375 
z
M 52.59375 71.296875 
L 52.59375 62.3125 
Q 48.875 64.0625 45.09375 64.984375 
Q 41.3125 65.921875 37.59375 65.921875 
Q 27.828125 65.921875 22.671875 59.328125 
Q 17.53125 52.734375 16.796875 39.40625 
Q 19.671875 43.65625 24.015625 45.921875 
Q 28.375 48.1875 33.59375 48.1875 
Q 44.578125 48.1875 50.953125 41.515625 
Q 57.328125 34.859375 57.328125 23.390625 
Q 57.328125 12.15625 50.6875 5.359375 
Q 44.046875 -1.421875 33.015625 -1.421875 
Q 20.359375 -1.421875 13.671875 8.265625 
Q 6.984375 17.96875 6.984375 36.375 
Q 6.984375 53.65625 15.1875 63.9375 
Q 23.390625 74.21875 37.203125 74.21875 
Q 40.921875 74.21875 44.703125 73.484375 
Q 48.484375 72.75 52.59375 71.296875 
z
" id="DejaVuSans-54"/>
      </defs>
      <g transform="translate(249.200765 266.598437)scale(0.1 -0.1)">
       <use xlink:href="#DejaVuSans-54"/>
       <use x="63.623047" xlink:href="#DejaVuSans-48"/>
      </g>
     </g>
    </g>
    <g id="xtick_5">
     <g id="line2d_5">
      <g>
       <use style="stroke:#000000;stroke-width:0.8;" x="317.678293" xlink:href="#meae1842f4f" y="252"/>
      </g>
     </g>
     <g id="text_5">
      <!-- 80 -->
      <defs>
       <path d="M 31.78125 34.625 
Q 24.75 34.625 20.71875 30.859375 
Q 16.703125 27.09375 16.703125 20.515625 
Q 16.703125 13.921875 20.71875 10.15625 
Q 24.75 6.390625 31.78125 6.390625 
Q 38.8125 6.390625 42.859375 10.171875 
Q 46.921875 13.96875 46.921875 20.515625 
Q 46.921875 27.09375 42.890625 30.859375 
Q 38.875 34.625 31.78125 34.625 
z
M 21.921875 38.8125 
Q 15.578125 40.375 12.03125 44.71875 
Q 8.5 49.078125 8.5 55.328125 
Q 8.5 64.0625 14.71875 69.140625 
Q 20.953125 74.21875 31.78125 74.21875 
Q 42.671875 74.21875 48.875 69.140625 
Q 55.078125 64.0625 55.078125 55.328125 
Q 55.078125 49.078125 51.53125 44.71875 
Q 48 40.375 41.703125 38.8125 
Q 48.828125 37.15625 52.796875 32.3125 
Q 56.78125 27.484375 56.78125 20.515625 
Q 56.78125 9.90625 50.3125 4.234375 
Q 43.84375 -1.421875 31.78125 -1.421875 
Q 19.734375 -1.421875 13.25 4.234375 
Q 6.78125 9.90625 6.78125 20.515625 
Q 6.78125 27.484375 10.78125 32.3125 
Q 14.796875 37.15625 21.921875 38.8125 
z
M 18.3125 54.390625 
Q 18.3125 48.734375 21.84375 45.5625 
Q 25.390625 42.390625 31.78125 42.390625 
Q 38.140625 42.390625 41.71875 45.5625 
Q 45.3125 48.734375 45.3125 54.390625 
Q 45.3125 60.0625 41.71875 63.234375 
Q 38.140625 66.40625 31.78125 66.40625 
Q 25.390625 66.40625 21.84375 63.234375 
Q 18.3125 60.0625 18.3125 54.390625 
z
" id="DejaVuSans-56"/>
      </defs>
      <g transform="translate(311.315793 266.598437)scale(0.1 -0.1)">
       <use xlink:href="#DejaVuSans-56"/>
       <use x="63.623047" xlink:href="#DejaVuSans-48"/>
      </g>
     </g>
    </g>
    <g id="xtick_6">
     <g id="line2d_6">
      <g>
       <use style="stroke:#000000;stroke-width:0.8;" x="379.793321" xlink:href="#meae1842f4f" y="252"/>
      </g>
     </g>
     <g id="text_6">
      <!-- 100 -->
      <defs>
       <path d="M 12.40625 8.296875 
L 28.515625 8.296875 
L 28.515625 63.921875 
L 10.984375 60.40625 
L 10.984375 69.390625 
L 28.421875 72.90625 
L 38.28125 72.90625 
L 38.28125 8.296875 
L 54.390625 8.296875 
L 54.390625 0 
L 12.40625 0 
z
" id="DejaVuSans-49"/>
      </defs>
      <g transform="translate(370.249571 266.598437)scale(0.1 -0.1)">
       <use xlink:href="#DejaVuSans-49"/>
       <use x="63.623047" xlink:href="#DejaVuSans-48"/>
       <use x="127.246094" xlink:href="#DejaVuSans-48"/>
      </g>
     </g>
    </g>
   </g>
   <g id="matplotlib.axis_2">
    <g id="ytick_1">
     <g id="line2d_7">
      <defs>
       <path d="M 0 0 
L -3.5 0 
" id="me6117f09db" style="stroke:#000000;stroke-width:0.8;"/>
      </defs>
      <g>
       <use style="stroke:#000000;stroke-width:0.8;" x="54" xlink:href="#me6117f09db" y="234.496563"/>
      </g>
     </g>
     <g id="text_7">
      <!-- −4 -->
      <defs>
       <path d="M 10.59375 35.5 
L 73.1875 35.5 
L 73.1875 27.203125 
L 10.59375 27.203125 
z
" id="DejaVuSans-8722"/>
      </defs>
      <g transform="translate(32.257812 238.295781)scale(0.1 -0.1)">
       <use xlink:href="#DejaVuSans-8722"/>
       <use x="83.789062" xlink:href="#DejaVuSans-52"/>
      </g>
     </g>
    </g>
    <g id="ytick_2">
     <g id="line2d_8">
      <g>
       <use style="stroke:#000000;stroke-width:0.8;" x="54" xlink:href="#me6117f09db" y="208.658633"/>
      </g>
     </g>
     <g id="text_8">
      <!-- −3 -->
      <defs>
       <path d="M 40.578125 39.3125 
Q 47.65625 37.796875 51.625 33 
Q 55.609375 28.21875 55.609375 21.1875 
Q 55.609375 10.40625 48.1875 4.484375 
Q 40.765625 -1.421875 27.09375 -1.421875 
Q 22.515625 -1.421875 17.65625 -0.515625 
Q 12.796875 0.390625 7.625 2.203125 
L 7.625 11.71875 
Q 11.71875 9.328125 16.59375 8.109375 
Q 21.484375 6.890625 26.8125 6.890625 
Q 36.078125 6.890625 40.9375 10.546875 
Q 45.796875 14.203125 45.796875 21.1875 
Q 45.796875 27.640625 41.28125 31.265625 
Q 36.765625 34.90625 28.71875 34.90625 
L 20.21875 34.90625 
L 20.21875 43.015625 
L 29.109375 43.015625 
Q 36.375 43.015625 40.234375 45.921875 
Q 44.09375 48.828125 44.09375 54.296875 
Q 44.09375 59.90625 40.109375 62.90625 
Q 36.140625 65.921875 28.71875 65.921875 
Q 24.65625 65.921875 20.015625 65.03125 
Q 15.375 64.15625 9.8125 62.3125 
L 9.8125 71.09375 
Q 15.4375 72.65625 20.34375 73.4375 
Q 25.25 74.21875 29.59375 74.21875 
Q 40.828125 74.21875 47.359375 69.109375 
Q 53.90625 64.015625 53.90625 55.328125 
Q 53.90625 49.265625 50.4375 45.09375 
Q 46.96875 40.921875 40.578125 39.3125 
z
" id="DejaVuSans-51"/>
      </defs>
      <g transform="translate(32.257812 212.457851)scale(0.1 -0.1)">
       <use xlink:href="#DejaVuSans-8722"/>
       <use x="83.789062" xlink:href="#DejaVuSans-51"/>
      </g>
     </g>
    </g>
    <g id="ytick_3">
     <g id="line2d_9">
      <g>
       <use style="stroke:#000000;stroke-width:0.8;" x="54" xlink:href="#me6117f09db" y="182.820703"/>
      </g>
     </g>
     <g id="text_9">
      <!-- −2 -->
      <g transform="translate(32.257812 186.619921)scale(0.1 -0.1)">
       <use xlink:href="#DejaVuSans-8722"/>
       <use x="83.789062" xlink:href="#DejaVuSans-50"/>
      </g>
     </g>
    </g>
    <g id="ytick_4">
     <g id="line2d_10">
      <g>
       <use style="stroke:#000000;stroke-width:0.8;" x="54" xlink:href="#me6117f09db" y="156.982773"/>
      </g>
     </g>
     <g id="text_10">
      <!-- −1 -->
      <g transform="translate(32.257812 160.781991)scale(0.1 -0.1)">
       <use xlink:href="#DejaVuSans-8722"/>
       <use x="83.789062" xlink:href="#DejaVuSans-49"/>
      </g>
     </g>
    </g>
    <g id="ytick_5">
     <g id="line2d_11">
      <g>
       <use style="stroke:#000000;stroke-width:0.8;" x="54" xlink:href="#me6117f09db" y="131.144843"/>
      </g>
     </g>
     <g id="text_11">
      <!-- 0 -->
      <g transform="translate(40.6375 134.944061)scale(0.1 -0.1)">
       <use xlink:href="#DejaVuSans-48"/>
      </g>
     </g>
    </g>
    <g id="ytick_6">
     <g id="line2d_12">
      <g>
       <use style="stroke:#000000;stroke-width:0.8;" x="54" xlink:href="#me6117f09db" y="105.306913"/>
      </g>
     </g>
     <g id="text_12">
      <!-- 1 -->
      <g transform="translate(40.6375 109.106132)scale(0.1 -0.1)">
       <use xlink:href="#DejaVuSans-49"/>
      </g>
     </g>
    </g>
    <g id="ytick_7">
     <g id="line2d_13">
      <g>
       <use style="stroke:#000000;stroke-width:0.8;" x="54" xlink:href="#me6117f09db" y="79.468983"/>
      </g>
     </g>
     <g id="text_13">
      <!-- 2 -->
      <g transform="translate(40.6375 83.268202)scale(0.1 -0.1)">
       <use xlink:href="#DejaVuSans-50"/>
      </g>
     </g>
    </g>
    <g id="ytick_8">
     <g id="line2d_14">
      <g>
       <use style="stroke:#000000;stroke-width:0.8;" x="54" xlink:href="#me6117f09db" y="53.631053"/>
      </g>
     </g>
     <g id="text_14">
      <!-- 3 -->
      <g transform="translate(40.6375 57.430272)scale(0.1 -0.1)">
       <use xlink:href="#DejaVuSans-51"/>
      </g>
     </g>
    </g>
   </g>
   <g id="line2d_15">
    <path clip-path="url(#pa26907ec1d)" d="M 69.218182 154.823734 
L 72.323933 130.597261 
L 75.429685 124.533011 
L 78.535436 80.417032 
L 81.641187 97.388204 
L 84.746939 117.461054 
L 87.85269 99.16171 
L 90.958442 75.986376 
L 94.064193 69.625648 
L 97.169944 136.07864 
L 100.275696 73.061561 
L 103.381447 76.076925 
L 106.487199 94.676592 
L 109.59295 109.647298 
L 112.698701 161.886723 
L 115.804453 88.340339 
L 118.910204 82.723322 
L 122.015955 113.011169 
L 125.121707 97.124848 
L 128.227458 118.624233 
L 131.33321 80.493209 
L 134.438961 91.385066 
L 137.544712 49.974592 
L 140.650464 86.281808 
L 143.756215 90.414148 
L 146.861967 61.419521 
L 149.967718 71.787136 
L 153.073469 62.828923 
L 156.179221 68.397438 
L 159.284972 86.52778 
L 162.390724 72.320255 
L 165.496475 46.242563 
L 168.602226 79.610031 
L 171.707978 97.105369 
L 174.813729 106.065098 
L 177.919481 128.540465 
L 181.025232 115.989516 
L 184.130983 93.800935 
L 187.236735 130.750941 
L 190.342486 103.786796 
L 193.448237 98.677158 
L 196.553989 136.673553 
L 199.65974 164.835816 
L 202.765492 133.133505 
L 205.871243 159.489523 
L 208.976994 154.522421 
L 212.082746 185.330687 
L 215.188497 175.305829 
L 218.294249 169.64647 
L 221.4 169.676165 
L 224.505751 182.325699 
L 227.611503 185.257374 
L 230.717254 214.436139 
L 233.823006 173.762152 
L 236.928757 215.708279 
L 240.034508 213.300178 
L 243.14026 227.920553 
L 246.246011 210.632516 
L 249.351763 163.030465 
L 252.457514 139.157033 
L 255.563265 168.329659 
L 258.669017 126.177999 
L 261.774768 161.759258 
L 264.880519 150.583442 
L 267.986271 166.965039 
L 271.092022 186.372637 
L 274.197774 130.152606 
L 277.303525 159.165907 
L 280.409276 215.461265 
L 283.515028 155.483502 
L 286.620779 178.852604 
L 289.726531 172.122788 
L 292.832282 188.277458 
L 295.938033 189.733554 
L 299.043785 215.184929 
L 302.149536 221.184734 
L 305.255288 223.395972 
L 308.361039 233.645155 
L 311.46679 234.725489 
L 314.572542 213.374039 
L 317.678293 180.147666 
L 320.784045 212.69523 
L 323.889796 242.116364 
L 326.995547 204.95831 
L 330.101299 198.634643 
L 333.20705 223.519589 
L 336.312801 208.827559 
L 339.418553 200.377178 
L 342.524304 172.451203 
L 345.630056 154.985215 
L 348.735807 176.685619 
L 351.841558 185.254085 
L 354.94731 184.20141 
L 358.053061 167.276547 
L 361.158813 190.829542 
L 364.264564 155.023489 
L 367.370315 158.325222 
L 370.476067 150.176844 
L 373.581818 128.855438 
" style="fill:none;stroke:#1f77b4;stroke-linecap:square;stroke-width:1.5;"/>
   </g>
   <g id="line2d_16">
    <path clip-path="url(#pa26907ec1d)" d="M 69.218182 140.363189 
L 72.323933 134.382394 
L 75.429685 127.016268 
L 78.535436 105.466226 
L 81.641187 100.187893 
L 84.746939 104.463643 
L 87.85269 99.543975 
L 90.958442 93.317248 
L 94.064193 90.275434 
L 97.169944 107.162376 
L 100.275696 95.433079 
L 103.381447 91.622085 
L 106.487199 92.241892 
L 109.59295 96.15387 
L 112.698701 125.834533 
L 115.804453 106.223591 
L 118.910204 97.370817 
L 122.015955 100.970435 
L 125.121707 97.305448 
L 128.227458 103.018164 
L 131.33321 94.903621 
L 134.438961 93.323581 
L 137.544712 89.282403 
L 140.650464 89.700025 
L 143.756215 90.257339 
L 146.861967 88.059866 
L 149.967718 87.63776 
L 153.073469 86.991526 
L 156.179221 86.859709 
L 159.284972 88.072652 
L 162.390724 87.388634 
L 165.496475 86.399166 
L 168.602226 87.170885 
L 171.707978 89.632376 
L 174.813729 92.821817 
L 177.919481 103.577671 
L 181.025232 104.161018 
L 184.130983 97.260758 
L 187.236735 109.151867 
L 190.342486 102.717449 
L 193.448237 98.433992 
L 196.553989 113.621709 
L 199.65974 138.790281 
L 202.765492 134.470569 
L 205.871243 148.121378 
L 208.976994 151.961564 
L 212.082746 161.514999 
L 215.188497 163.883683 
L 218.294249 164.156123 
L 221.4 164.464936 
L 224.505751 166.656365 
L 227.611503 167.968327 
L 230.717254 170.538559 
L 233.823006 168.655062 
L 236.928757 171.232205 
L 240.034508 172.30681 
L 243.14026 173.390301 
L 246.246011 173.52551 
L 249.351763 168.803754 
L 252.457514 156.933224 
L 255.563265 162.518724 
L 258.669017 144.233626 
L 261.774768 154.464529 
L 264.880519 153.556734 
L 267.986271 159.246868 
L 271.092022 164.730125 
L 274.197774 148.00323 
L 277.303525 154.863586 
L 280.409276 165.446887 
L 283.515028 161.007077 
L 286.620779 164.914294 
L 289.726531 165.324317 
L 292.832282 167.730739 
L 295.938033 168.95509 
L 299.043785 171.087895 
L 302.149536 172.430209 
L 305.255288 173.299777 
L 308.361039 174.146668 
L 311.46679 174.739644 
L 314.572542 174.58205 
L 317.678293 172.482463 
L 320.784045 173.591852 
L 323.889796 174.766626 
L 326.995547 174.321644 
L 330.101299 173.807519 
L 333.20705 174.535777 
L 336.312801 174.411734 
L 339.418553 173.966324 
L 342.524304 171.155621 
L 345.630056 165.472419 
L 348.735807 167.719832 
L 351.841558 169.115457 
L 354.94731 169.477254 
L 358.053061 167.103666 
L 361.158813 169.273424 
L 364.264564 163.570983 
L 367.370315 161.885765 
L 370.476067 157.617663 
L 373.581818 142.924123 
" style="fill:none;stroke:#ff7f0e;stroke-linecap:square;stroke-width:1.5;"/>
   </g>
   <g id="patch_3">
    <path d="M 54 252 
L 54 34.56 
" style="fill:none;stroke:#000000;stroke-linecap:square;stroke-linejoin:miter;stroke-width:0.8;"/>
   </g>
   <g id="patch_4">
    <path d="M 388.8 252 
L 388.8 34.56 
" style="fill:none;stroke:#000000;stroke-linecap:square;stroke-linejoin:miter;stroke-width:0.8;"/>
   </g>
   <g id="patch_5">
    <path d="M 54 252 
L 388.8 252 
" style="fill:none;stroke:#000000;stroke-linecap:square;stroke-linejoin:miter;stroke-width:0.8;"/>
   </g>
   <g id="patch_6">
    <path d="M 54 34.56 
L 388.8 34.56 
" style="fill:none;stroke:#000000;stroke-linecap:square;stroke-linejoin:miter;stroke-width:0.8;"/>
   </g>
  </g>
 </g>
 <defs>
  <clipPath id="pa26907ec1d">
   <rect height="217.44" width="334.8" x="54" y="34.56"/>
  </clipPath>
 </defs>
</svg>
