<?xml version="1.0" encoding="utf-8" standalone="no"?>
<!DOCTYPE svg PUBLIC "-//W3C//DTD SVG 1.1//EN"
  "http://www.w3.org/Graphics/SVG/1.1/DTD/svg11.dtd">
<!-- Created with matplotlib (https://matplotlib.org/) -->
<svg height="288pt" version="1.1" viewBox="0 0 432 288" width="432pt" xmlns="http://www.w3.org/2000/svg" xmlns:xlink="http://www.w3.org/1999/xlink">
 <defs>
  <style type="text/css">
*{stroke-linecap:butt;stroke-linejoin:round;}
  </style>
 </defs>
 <g id="figure_1">
  <g id="patch_1">
   <path d="M 0 288 
L 432 288 
L 432 0 
L 0 0 
z
" style="fill:#ffffff;"/>
  </g>
  <g id="axes_1">
   <g id="patch_2">
    <path d="M 54 252 
L 388.8 252 
L 388.8 34.56 
L 54 34.56 
z
" style="fill:#ffffff;"/>
   </g>
   <g id="PolyCollection_1">
    <path clip-path="url(#p54f6dcc085)" d="M 69.218182 136.805795 
L 69.218182 154.900661 
L 72.355951 146.632031 
L 75.493721 172.127878 
L 78.63149 166.072039 
L 81.76926 179.989524 
L 84.907029 191.462922 
L 88.044799 173.811447 
L 91.182568 203.684025 
L 94.320337 194.43918 
L 97.458107 185.502071 
L 100.595876 173.001486 
L 103.733646 166.538801 
L 106.871415 171.777755 
L 110.009185 164.195092 
L 113.146954 193.428138 
L 116.284724 192.350216 
L 119.422493 199.773019 
L 122.560262 214.501555 
L 125.698032 215.866487 
L 128.835801 216.294324 
L 131.973571 242.116364 
L 135.11134 212.810616 
L 138.24911 200.086733 
L 141.386879 170.294349 
L 144.524649 156.243622 
L 147.662418 164.29104 
L 150.800187 153.814079 
L 153.937957 164.344315 
L 157.075726 154.261115 
L 160.213496 155.407285 
L 163.351265 155.289664 
L 166.489035 159.08014 
L 169.626804 160.913216 
L 172.764574 148.881709 
L 175.902343 152.094695 
L 179.040112 163.271397 
L 182.177882 149.003652 
L 185.315651 148.274139 
L 188.453421 149.319408 
L 191.59119 161.466596 
L 194.72896 153.17385 
L 197.866729 154.121037 
L 201.004499 152.821763 
L 204.142268 150.338533 
L 207.280037 155.780011 
L 210.417807 162.083155 
L 213.555576 161.070962 
L 216.693346 166.687527 
L 219.831115 165.486052 
L 222.968885 162.200686 
L 226.106654 162.665978 
L 229.244424 157.012459 
L 232.382193 152.261075 
L 235.519963 155.605672 
L 238.657732 158.973875 
L 241.795501 160.181333 
L 244.933271 153.686094 
L 248.07104 157.731526 
L 251.20881 152.759564 
L 254.346579 150.033092 
L 257.484349 149.563307 
L 260.622118 163.235138 
L 263.759888 177.224083 
L 266.897657 179.883113 
L 270.035426 208.848903 
L 273.173196 189.615354 
L 276.310965 199.412646 
L 279.448735 184.748282 
L 282.586504 177.402354 
L 285.724274 152.21236 
L 288.862043 150.671898 
L 291.999813 151.990997 
L 295.137582 152.365922 
L 298.275351 156.932267 
L 301.413121 160.179593 
L 304.55089 161.878024 
L 307.68866 166.371533 
L 310.826429 167.690707 
L 313.964199 161.693047 
L 317.101968 162.331867 
L 320.239738 161.172537 
L 323.377507 156.486782 
L 326.515276 150.842897 
L 329.653046 150.019368 
L 332.790815 149.981886 
L 335.928585 151.707254 
L 339.066354 153.960111 
L 342.204124 157.039586 
L 345.341893 155.101613 
L 348.479663 156.15243 
L 351.617432 156.871465 
L 354.755201 149.808615 
L 357.892971 148.693882 
L 361.03074 164.652698 
L 364.16851 148.407128 
L 367.306279 150.195448 
L 370.444049 153.549198 
L 373.581818 153.649919 
L 373.581818 99.047046 
L 373.581818 99.047046 
L 370.444049 99.662484 
L 367.306279 114.365339 
L 364.16851 125.497424 
L 361.03074 133.540592 
L 357.892971 127.920012 
L 354.755201 121.545576 
L 351.617432 86.346278 
L 348.479663 89.212555 
L 345.341893 93.458322 
L 342.204124 85.579262 
L 339.066354 97.945536 
L 335.928585 107.506294 
L 332.790815 115.923452 
L 329.653046 117.065305 
L 326.515276 117.254859 
L 323.377507 89.36691 
L 320.239738 69.91769 
L 317.101968 65.361314 
L 313.964199 67.93337 
L 310.826429 44.443636 
L 307.68866 49.646306 
L 304.55089 66.587898 
L 301.413121 73.167297 
L 298.275351 85.896396 
L 295.137582 104.267026 
L 291.999813 106.409779 
L 288.862043 114.640931 
L 285.724274 131.455685 
L 282.586504 130.549203 
L 279.448735 128.917869 
L 276.310965 125.54581 
L 273.173196 127.991375 
L 270.035426 123.255899 
L 266.897657 130.518577 
L 263.759888 131.135633 
L 260.622118 133.891158 
L 257.484349 131.461201 
L 254.346579 117.276968 
L 251.20881 104.380793 
L 248.07104 83.297441 
L 244.933271 100.861329 
L 241.795501 73.475629 
L 238.657732 78.281613 
L 235.519963 91.915394 
L 232.382193 108.483145 
L 229.244424 87.266448 
L 226.106654 63.957768 
L 222.968885 65.728926 
L 219.831115 52.715537 
L 216.693346 48.546438 
L 213.555576 69.617626 
L 210.417807 66.195355 
L 207.280037 90.86667 
L 204.142268 114.40924 
L 201.004499 134.783531 
L 197.866729 134.929129 
L 194.72896 134.851472 
L 191.59119 134.295506 
L 188.453421 133.243245 
L 185.315651 126.333147 
L 182.177882 131.563527 
L 179.040112 133.981596 
L 175.902343 134.641517 
L 172.764574 130.807531 
L 169.626804 134.317397 
L 166.489035 134.573271 
L 163.351265 134.803741 
L 160.213496 134.746768 
L 157.075726 134.504953 
L 153.937957 133.657532 
L 150.800187 134.030978 
L 147.662418 133.394084 
L 144.524649 132.561382 
L 141.386879 130.942202 
L 138.24911 124.95341 
L 135.11134 122.017556 
L 131.973571 114.54341 
L 128.835801 121.248703 
L 125.698032 121.412315 
L 122.560262 121.75027 
L 119.422493 125.454469 
L 116.284724 127.330017 
L 113.146954 127.025385 
L 110.009185 133.427103 
L 106.871415 132.007621 
L 103.733646 132.803797 
L 100.595876 131.444351 
L 97.458107 128.781541 
L 94.320337 126.800163 
L 91.182568 124.524725 
L 88.044799 131.636519 
L 84.907029 127.737814 
L 81.76926 130.616913 
L 78.63149 133.901576 
L 75.493721 132.65793 
L 72.355951 131.345208 
L 69.218182 136.805795 
z
" style="fill:#1f77b4;fill-opacity:0.5;"/>
   </g>
   <g id="matplotlib.axis_1">
    <g id="xtick_1">
     <g id="line2d_1">
      <defs>
       <path d="M 0 0 
L 0 3.5 
" id="m6a93bbec80" style="stroke:#000000;stroke-width:0.8;"/>
      </defs>
      <g>
       <use style="stroke:#000000;stroke-width:0.8;" x="69.218182" xlink:href="#m6a93bbec80" y="252"/>
      </g>
     </g>
     <g id="text_1">
      <!-- 0 -->
      <defs>
       <path d="M 31.78125 66.40625 
Q 24.171875 66.40625 20.328125 58.90625 
Q 16.5 51.421875 16.5 36.375 
Q 16.5 21.390625 20.328125 13.890625 
Q 24.171875 6.390625 31.78125 6.390625 
Q 39.453125 6.390625 43.28125 13.890625 
Q 47.125 21.390625 47.125 36.375 
Q 47.125 51.421875 43.28125 58.90625 
Q 39.453125 66.40625 31.78125 66.40625 
z
M 31.78125 74.21875 
Q 44.046875 74.21875 50.515625 64.515625 
Q 56.984375 54.828125 56.984375 36.375 
Q 56.984375 17.96875 50.515625 8.265625 
Q 44.046875 -1.421875 31.78125 -1.421875 
Q 19.53125 -1.421875 13.0625 8.265625 
Q 6.59375 17.96875 6.59375 36.375 
Q 6.59375 54.828125 13.0625 64.515625 
Q 19.53125 74.21875 31.78125 74.21875 
z
" id="DejaVuSans-48"/>
      </defs>
      <g transform="translate(66.036932 266.598437)scale(0.1 -0.1)">
       <use xlink:href="#DejaVuSans-48"/>
      </g>
     </g>
    </g>
    <g id="xtick_2">
     <g id="line2d_2">
      <g>
       <use style="stroke:#000000;stroke-width:0.8;" x="131.973571" xlink:href="#m6a93bbec80" y="252"/>
      </g>
     </g>
     <g id="text_2">
      <!-- 20 -->
      <defs>
       <path d="M 19.1875 8.296875 
L 53.609375 8.296875 
L 53.609375 0 
L 7.328125 0 
L 7.328125 8.296875 
Q 12.9375 14.109375 22.625 23.890625 
Q 32.328125 33.6875 34.8125 36.53125 
Q 39.546875 41.84375 41.421875 45.53125 
Q 43.3125 49.21875 43.3125 52.78125 
Q 43.3125 58.59375 39.234375 62.25 
Q 35.15625 65.921875 28.609375 65.921875 
Q 23.96875 65.921875 18.8125 64.3125 
Q 13.671875 62.703125 7.8125 59.421875 
L 7.8125 69.390625 
Q 13.765625 71.78125 18.9375 73 
Q 24.125 74.21875 28.421875 74.21875 
Q 39.75 74.21875 46.484375 68.546875 
Q 53.21875 62.890625 53.21875 53.421875 
Q 53.21875 48.921875 51.53125 44.890625 
Q 49.859375 40.875 45.40625 35.40625 
Q 44.1875 33.984375 37.640625 27.21875 
Q 31.109375 20.453125 19.1875 8.296875 
z
" id="DejaVuSans-50"/>
      </defs>
      <g transform="translate(125.611071 266.598437)scale(0.1 -0.1)">
       <use xlink:href="#DejaVuSans-50"/>
       <use x="63.623047" xlink:href="#DejaVuSans-48"/>
      </g>
     </g>
    </g>
    <g id="xtick_3">
     <g id="line2d_3">
      <g>
       <use style="stroke:#000000;stroke-width:0.8;" x="194.72896" xlink:href="#m6a93bbec80" y="252"/>
      </g>
     </g>
     <g id="text_3">
      <!-- 40 -->
      <defs>
       <path d="M 37.796875 64.3125 
L 12.890625 25.390625 
L 37.796875 25.390625 
z
M 35.203125 72.90625 
L 47.609375 72.90625 
L 47.609375 25.390625 
L 58.015625 25.390625 
L 58.015625 17.1875 
L 47.609375 17.1875 
L 47.609375 0 
L 37.796875 0 
L 37.796875 17.1875 
L 4.890625 17.1875 
L 4.890625 26.703125 
z
" id="DejaVuSans-52"/>
      </defs>
      <g transform="translate(188.36646 266.598437)scale(0.1 -0.1)">
       <use xlink:href="#DejaVuSans-52"/>
       <use x="63.623047" xlink:href="#DejaVuSans-48"/>
      </g>
     </g>
    </g>
    <g id="xtick_4">
     <g id="line2d_4">
      <g>
       <use style="stroke:#000000;stroke-width:0.8;" x="257.484349" xlink:href="#m6a93bbec80" y="252"/>
      </g>
     </g>
     <g id="text_4">
      <!-- 60 -->
      <defs>
       <path d="M 33.015625 40.375 
Q 26.375 40.375 22.484375 35.828125 
Q 18.609375 31.296875 18.609375 23.390625 
Q 18.609375 15.53125 22.484375 10.953125 
Q 26.375 6.390625 33.015625 6.390625 
Q 39.65625 6.390625 43.53125 10.953125 
Q 47.40625 15.53125 47.40625 23.390625 
Q 47.40625 31.296875 43.53125 35.828125 
Q 39.65625 40.375 33.015625 40.375 
z
M 52.59375 71.296875 
L 52.59375 62.3125 
Q 48.875 64.0625 45.09375 64.984375 
Q 41.3125 65.921875 37.59375 65.921875 
Q 27.828125 65.921875 22.671875 59.328125 
Q 17.53125 52.734375 16.796875 39.40625 
Q 19.671875 43.65625 24.015625 45.921875 
Q 28.375 48.1875 33.59375 48.1875 
Q 44.578125 48.1875 50.953125 41.515625 
Q 57.328125 34.859375 57.328125 23.390625 
Q 57.328125 12.15625 50.6875 5.359375 
Q 44.046875 -1.421875 33.015625 -1.421875 
Q 20.359375 -1.421875 13.671875 8.265625 
Q 6.984375 17.96875 6.984375 36.375 
Q 6.984375 53.65625 15.1875 63.9375 
Q 23.390625 74.21875 37.203125 74.21875 
Q 40.921875 74.21875 44.703125 73.484375 
Q 48.484375 72.75 52.59375 71.296875 
z
" id="DejaVuSans-54"/>
      </defs>
      <g transform="translate(251.121849 266.598437)scale(0.1 -0.1)">
       <use xlink:href="#DejaVuSans-54"/>
       <use x="63.623047" xlink:href="#DejaVuSans-48"/>
      </g>
     </g>
    </g>
    <g id="xtick_5">
     <g id="line2d_5">
      <g>
       <use style="stroke:#000000;stroke-width:0.8;" x="320.239738" xlink:href="#m6a93bbec80" y="252"/>
      </g>
     </g>
     <g id="text_5">
      <!-- 80 -->
      <defs>
       <path d="M 31.78125 34.625 
Q 24.75 34.625 20.71875 30.859375 
Q 16.703125 27.09375 16.703125 20.515625 
Q 16.703125 13.921875 20.71875 10.15625 
Q 24.75 6.390625 31.78125 6.390625 
Q 38.8125 6.390625 42.859375 10.171875 
Q 46.921875 13.96875 46.921875 20.515625 
Q 46.921875 27.09375 42.890625 30.859375 
Q 38.875 34.625 31.78125 34.625 
z
M 21.921875 38.8125 
Q 15.578125 40.375 12.03125 44.71875 
Q 8.5 49.078125 8.5 55.328125 
Q 8.5 64.0625 14.71875 69.140625 
Q 20.953125 74.21875 31.78125 74.21875 
Q 42.671875 74.21875 48.875 69.140625 
Q 55.078125 64.0625 55.078125 55.328125 
Q 55.078125 49.078125 51.53125 44.71875 
Q 48 40.375 41.703125 38.8125 
Q 48.828125 37.15625 52.796875 32.3125 
Q 56.78125 27.484375 56.78125 20.515625 
Q 56.78125 9.90625 50.3125 4.234375 
Q 43.84375 -1.421875 31.78125 -1.421875 
Q 19.734375 -1.421875 13.25 4.234375 
Q 6.78125 9.90625 6.78125 20.515625 
Q 6.78125 27.484375 10.78125 32.3125 
Q 14.796875 37.15625 21.921875 38.8125 
z
M 18.3125 54.390625 
Q 18.3125 48.734375 21.84375 45.5625 
Q 25.390625 42.390625 31.78125 42.390625 
Q 38.140625 42.390625 41.71875 45.5625 
Q 45.3125 48.734375 45.3125 54.390625 
Q 45.3125 60.0625 41.71875 63.234375 
Q 38.140625 66.40625 31.78125 66.40625 
Q 25.390625 66.40625 21.84375 63.234375 
Q 18.3125 60.0625 18.3125 54.390625 
z
" id="DejaVuSans-56"/>
      </defs>
      <g transform="translate(313.877238 266.598437)scale(0.1 -0.1)">
       <use xlink:href="#DejaVuSans-56"/>
       <use x="63.623047" xlink:href="#DejaVuSans-48"/>
      </g>
     </g>
    </g>
    <g id="xtick_6">
     <g id="line2d_6">
      <g>
       <use style="stroke:#000000;stroke-width:0.8;" x="382.995127" xlink:href="#m6a93bbec80" y="252"/>
      </g>
     </g>
     <g id="text_6">
      <!-- 100 -->
      <defs>
       <path d="M 12.40625 8.296875 
L 28.515625 8.296875 
L 28.515625 63.921875 
L 10.984375 60.40625 
L 10.984375 69.390625 
L 28.421875 72.90625 
L 38.28125 72.90625 
L 38.28125 8.296875 
L 54.390625 8.296875 
L 54.390625 0 
L 12.40625 0 
z
" id="DejaVuSans-49"/>
      </defs>
      <g transform="translate(373.451377 266.598437)scale(0.1 -0.1)">
       <use xlink:href="#DejaVuSans-49"/>
       <use x="63.623047" xlink:href="#DejaVuSans-48"/>
       <use x="127.246094" xlink:href="#DejaVuSans-48"/>
      </g>
     </g>
    </g>
   </g>
   <g id="matplotlib.axis_2">
    <g id="ytick_1">
     <g id="line2d_7">
      <defs>
       <path d="M 0 0 
L -3.5 0 
" id="m55d6674cb5" style="stroke:#000000;stroke-width:0.8;"/>
      </defs>
      <g>
       <use style="stroke:#000000;stroke-width:0.8;" x="54" xlink:href="#m55d6674cb5" y="247.140699"/>
      </g>
     </g>
     <g id="text_7">
      <!-- −0.6 -->
      <defs>
       <path d="M 10.59375 35.5 
L 73.1875 35.5 
L 73.1875 27.203125 
L 10.59375 27.203125 
z
" id="DejaVuSans-8722"/>
       <path d="M 10.6875 12.40625 
L 21 12.40625 
L 21 0 
L 10.6875 0 
z
" id="DejaVuSans-46"/>
      </defs>
      <g transform="translate(22.717187 250.939918)scale(0.1 -0.1)">
       <use xlink:href="#DejaVuSans-8722"/>
       <use x="83.789062" xlink:href="#DejaVuSans-48"/>
       <use x="147.412109" xlink:href="#DejaVuSans-46"/>
       <use x="179.199219" xlink:href="#DejaVuSans-54"/>
      </g>
     </g>
    </g>
    <g id="ytick_2">
     <g id="line2d_8">
      <g>
       <use style="stroke:#000000;stroke-width:0.8;" x="54" xlink:href="#m55d6674cb5" y="209.828575"/>
      </g>
     </g>
     <g id="text_8">
      <!-- −0.4 -->
      <g transform="translate(22.717187 213.627793)scale(0.1 -0.1)">
       <use xlink:href="#DejaVuSans-8722"/>
       <use x="83.789062" xlink:href="#DejaVuSans-48"/>
       <use x="147.412109" xlink:href="#DejaVuSans-46"/>
       <use x="179.199219" xlink:href="#DejaVuSans-52"/>
      </g>
     </g>
    </g>
    <g id="ytick_3">
     <g id="line2d_9">
      <g>
       <use style="stroke:#000000;stroke-width:0.8;" x="54" xlink:href="#m55d6674cb5" y="172.516451"/>
      </g>
     </g>
     <g id="text_9">
      <!-- −0.2 -->
      <g transform="translate(22.717187 176.315669)scale(0.1 -0.1)">
       <use xlink:href="#DejaVuSans-8722"/>
       <use x="83.789062" xlink:href="#DejaVuSans-48"/>
       <use x="147.412109" xlink:href="#DejaVuSans-46"/>
       <use x="179.199219" xlink:href="#DejaVuSans-50"/>
      </g>
     </g>
    </g>
    <g id="ytick_4">
     <g id="line2d_10">
      <g>
       <use style="stroke:#000000;stroke-width:0.8;" x="54" xlink:href="#m55d6674cb5" y="135.204326"/>
      </g>
     </g>
     <g id="text_10">
      <!-- 0.0 -->
      <g transform="translate(31.096875 139.003545)scale(0.1 -0.1)">
       <use xlink:href="#DejaVuSans-48"/>
       <use x="63.623047" xlink:href="#DejaVuSans-46"/>
       <use x="95.410156" xlink:href="#DejaVuSans-48"/>
      </g>
     </g>
    </g>
    <g id="ytick_5">
     <g id="line2d_11">
      <g>
       <use style="stroke:#000000;stroke-width:0.8;" x="54" xlink:href="#m55d6674cb5" y="97.892202"/>
      </g>
     </g>
     <g id="text_11">
      <!-- 0.2 -->
      <g transform="translate(31.096875 101.691421)scale(0.1 -0.1)">
       <use xlink:href="#DejaVuSans-48"/>
       <use x="63.623047" xlink:href="#DejaVuSans-46"/>
       <use x="95.410156" xlink:href="#DejaVuSans-50"/>
      </g>
     </g>
    </g>
    <g id="ytick_6">
     <g id="line2d_12">
      <g>
       <use style="stroke:#000000;stroke-width:0.8;" x="54" xlink:href="#m55d6674cb5" y="60.580078"/>
      </g>
     </g>
     <g id="text_12">
      <!-- 0.4 -->
      <g transform="translate(31.096875 64.379297)scale(0.1 -0.1)">
       <use xlink:href="#DejaVuSans-48"/>
       <use x="63.623047" xlink:href="#DejaVuSans-46"/>
       <use x="95.410156" xlink:href="#DejaVuSans-52"/>
      </g>
     </g>
    </g>
   </g>
   <g id="line2d_13">
    <path clip-path="url(#p54f6dcc085)" d="M 69.218182 145.510147 
L 72.355951 119.427043 
L 75.493721 165.591827 
L 78.63149 140.475243 
L 81.76926 158.789032 
L 84.907029 164.057901 
L 88.044799 137.902924 
L 91.182568 182.849152 
L 94.320337 153.936812 
L 97.458107 148.823749 
L 100.595876 140.002533 
L 103.733646 139.859919 
L 106.871415 149.545124 
L 110.009185 137.991991 
L 113.146954 175.827037 
L 116.284724 157.51663 
L 119.422493 166.584096 
L 122.560262 180.867225 
L 125.698032 173.112432 
L 128.835801 172.577736 
L 131.973571 213.626565 
L 135.11134 150.532491 
L 138.24911 154.045725 
L 141.386879 127.676919 
L 144.524649 127.696646 
L 147.662418 148.213535 
L 150.800187 128.893666 
L 153.937957 149.299472 
L 157.075726 129.921244 
L 160.213496 137.964421 
L 163.351265 136.956302 
L 166.489035 141.815764 
L 169.626804 141.580474 
L 172.764574 119.510546 
L 175.902343 139.37585 
L 179.040112 148.98903 
L 182.177882 119.334688 
L 185.315651 122.501432 
L 188.453421 137.087844 
L 191.59119 149.710428 
L 194.72896 130.423022 
L 197.866729 136.955008 
L 201.004499 134.331189 
L 204.142268 103.97762 
L 207.280037 93.527507 
L 210.417807 76.852347 
L 213.555576 95.865498 
L 216.693346 65.377154 
L 219.831115 85.412608 
L 222.968885 99.300104 
L 226.106654 89.294417 
L 229.244424 117.324764 
L 232.382193 127.69467 
L 235.519963 97.682 
L 238.657732 91.504179 
L 241.795501 93.564261 
L 244.933271 126.627183 
L 248.07104 92.169192 
L 251.20881 125.144323 
L 254.346579 128.006421 
L 257.484349 139.695442 
L 260.622118 152.553735 
L 263.759888 157.530973 
L 266.897657 152.603827 
L 270.035426 185.813945 
L 273.173196 145.53763 
L 276.310965 167.690426 
L 279.448735 145.25214 
L 282.586504 145.324581 
L 285.724274 116.068797 
L 288.862043 107.576497 
L 291.999813 110.489029 
L 295.137582 112.686555 
L 298.275351 93.52145 
L 301.413121 88.784556 
L 304.55089 88.099221 
L 307.68866 69.14428 
L 310.826429 73.065706 
L 313.964199 106.797897 
L 317.101968 89.728309 
L 320.239738 96.836227 
L 323.377507 116.326046 
L 326.515276 136.504441 
L 329.653046 120.459522 
L 332.790815 119.564156 
L 335.928585 111.117066 
L 339.066354 105.325327 
L 342.204124 96.679226 
L 345.341893 112.125684 
L 348.479663 103.224595 
L 351.617432 102.342631 
L 354.755201 142.742059 
L 357.892971 131.153053 
L 361.03074 157.030961 
L 364.16851 109.496416 
L 367.306279 113.226721 
L 370.444049 103.503841 
L 373.581818 110.680269 
" style="fill:none;stroke:#1f77b4;stroke-linecap:square;stroke-width:1.5;"/>
   </g>
   <g id="line2d_14">
    <path clip-path="url(#p54f6dcc085)" d="M 69.218182 145.853228 
L 72.355951 138.98862 
L 75.493721 152.392904 
L 78.63149 149.986808 
L 81.76926 155.303218 
L 84.907029 159.600369 
L 88.044799 152.723983 
L 91.182568 164.104374 
L 94.320337 160.61967 
L 97.458107 157.141807 
L 100.595876 152.222918 
L 103.733646 149.671299 
L 106.871415 151.892687 
L 110.009185 148.811098 
L 113.146954 160.22676 
L 116.284724 159.840117 
L 119.422493 162.613745 
L 122.560262 168.125914 
L 125.698032 168.6394 
L 128.835801 168.771515 
L 131.973571 178.329885 
L 135.11134 167.414086 
L 138.24911 162.520071 
L 141.386879 150.618275 
L 144.524649 144.402502 
L 147.662418 148.842563 
L 150.800187 143.922528 
L 153.937957 149.000924 
L 157.075726 144.383034 
L 160.213496 145.077027 
L 163.351265 145.046703 
L 166.489035 146.826705 
L 169.626804 147.615306 
L 172.764574 139.84462 
L 175.902343 143.368106 
L 179.040112 148.626496 
L 182.177882 140.28359 
L 185.315651 137.303643 
L 188.453421 141.281327 
L 191.59119 147.88105 
L 194.72896 144.012661 
L 197.866729 144.525083 
L 201.004499 143.802648 
L 204.142268 132.373886 
L 207.280037 123.32334 
L 210.417807 114.139256 
L 213.555576 115.344294 
L 216.693346 107.616981 
L 219.831115 109.100796 
L 222.968885 113.964808 
L 226.106654 113.311872 
L 229.244424 122.139455 
L 232.382193 130.372111 
L 235.519963 123.760533 
L 238.657732 118.627744 
L 241.795501 116.828481 
L 244.933271 127.273711 
L 248.07104 120.514485 
L 251.20881 128.570178 
L 254.346579 133.65503 
L 257.484349 140.512254 
L 260.622118 148.563148 
L 263.759888 154.179857 
L 266.897657 155.200846 
L 270.035426 166.052401 
L 273.173196 158.803366 
L 276.310965 162.479228 
L 279.448735 156.833076 
L 282.586504 153.975778 
L 285.724274 141.834023 
L 288.862043 132.656415 
L 291.999813 129.200388 
L 295.137582 128.316474 
L 298.275351 121.414332 
L 301.413121 116.673445 
L 304.55089 114.232959 
L 307.68866 108.008918 
L 310.826429 106.06717 
L 313.964199 114.81321 
L 317.101968 113.846589 
L 320.239738 115.545115 
L 323.377507 122.926847 
L 326.515276 134.048878 
L 329.653046 133.542336 
L 332.790815 132.952669 
L 335.928585 129.606774 
L 339.066354 125.952824 
L 342.204124 121.309423 
L 345.341893 124.279968 
L 348.479663 122.682493 
L 351.617432 121.60887 
L 354.755201 135.677095 
L 357.892971 138.306947 
L 361.03074 149.096645 
L 364.16851 136.952276 
L 367.306279 132.280393 
L 370.444049 126.605841 
L 373.581818 126.348483 
" style="fill:none;stroke:#ff7f0e;stroke-linecap:square;stroke-width:1.5;"/>
   </g>
   <g id="patch_3">
    <path d="M 54 252 
L 54 34.56 
" style="fill:none;stroke:#000000;stroke-linecap:square;stroke-linejoin:miter;stroke-width:0.8;"/>
   </g>
   <g id="patch_4">
    <path d="M 388.8 252 
L 388.8 34.56 
" style="fill:none;stroke:#000000;stroke-linecap:square;stroke-linejoin:miter;stroke-width:0.8;"/>
   </g>
   <g id="patch_5">
    <path d="M 54 252 
L 388.8 252 
" style="fill:none;stroke:#000000;stroke-linecap:square;stroke-linejoin:miter;stroke-width:0.8;"/>
   </g>
   <g id="patch_6">
    <path d="M 54 34.56 
L 388.8 34.56 
" style="fill:none;stroke:#000000;stroke-linecap:square;stroke-linejoin:miter;stroke-width:0.8;"/>
   </g>
  </g>
 </g>
 <defs>
  <clipPath id="p54f6dcc085">
   <rect height="217.44" width="334.8" x="54" y="34.56"/>
  </clipPath>
 </defs>
</svg>
